# xmcd
#
# Track frame offsets:
#	150
#	16818
#	32078
#	49924
#	71823
#	88380
#	100597
#	116186
#	131195
#	144971
#	160372
#	175159
#	193234
#
# Disc length: 2940 seconds
#
# Revision: 1
# Processed by: cddbd v1.5.2PL0 Copyright (c) Steve Scherf et al.
# Submitted via: audiograbber 1.82.02
#
DISCID=bd0b7a0d
DTITLE=Shooter Jennings -  The Wolf
DYEAR=2007
DGENRE=Country
TTITLE0=This Ol Wheel 
TTITLE1=Tangled Up Roses 
TTITLE2=Walk Of Life
TTITLE3=Old Friend 
TTITLE4=Slow Train
TTITLE5=Time Management 101
TTITLE6=Concrete Cowboys
TTITLE7=Higher
TTITLE8=Blood From A Stone 
TTITLE9=Last Time I Let You Down
TTITLE10=She Lives In Color 
TTITLE11=The Wolf
TTITLE12=A Matter Of Time
EXTD=Summited By - Dream`Master
EXTT0=
EXTT1=
EXTT2=
EXTT3=
EXTT4=
EXTT5=
EXTT6=
EXTT7=
EXTT8=
EXTT9=
EXTT10=
EXTT11=
EXTT12=
PLAYORDER=
